<svg width="280" height="355" viewBox="0 0 280 355" fill="none" xmlns="http://www.w3.org/2000/svg">
<path d="M44.438 318.346L37.0289 317.12L36.9842 315.767L39.1922 315.846L46.4973 317.103L46.5373 318.316L44.438 318.346ZM37.1441 320.607L44.4589 317.92L46.5106 317.507L46.5553 318.86L37.2126 322.68L37.1441 320.607ZM44.2006 312.749L36.8615 312.051L36.7933 309.987L46.3058 311.306L46.3505 312.658L44.2006 312.749ZM36.9767 315.539L44.1544 312.411L46.3238 311.85L46.3638 313.063L39.1971 316.26L37.0222 316.918L36.9767 315.539Z" fill="#1A191D"/>
<path d="M47.3406 296.409C47.2747 297.11 47.1009 297.742 46.8192 298.307C46.5321 298.866 46.1619 299.343 45.7086 299.737C45.2558 300.126 44.7383 300.425 44.156 300.632C43.5737 300.84 42.9574 300.942 42.307 300.939L41.9555 300.937C41.2113 300.934 40.5477 300.823 39.9645 300.604C39.3813 300.386 38.8939 300.083 38.5024 299.696C38.1051 299.309 37.8168 298.853 37.6377 298.327C37.4586 297.801 37.3979 297.231 37.4555 296.619C37.5192 295.942 37.6891 295.351 37.9654 294.844C38.2417 294.338 38.6034 293.919 39.0507 293.588C39.4927 293.252 40.0056 293.003 40.5893 292.842C41.1736 292.676 41.8085 292.594 42.494 292.597L43.3993 292.601L42.711 299.917L41.1905 299.91L41.6828 294.677L41.5159 294.676C41.1339 294.686 40.7693 294.76 40.4222 294.899C40.0756 295.032 39.7866 295.237 39.5552 295.516C39.3237 295.796 39.1861 296.168 39.1422 296.635C39.1092 296.985 39.156 297.298 39.2826 297.572C39.4038 297.841 39.5965 298.067 39.8608 298.249C40.125 298.431 40.4517 298.573 40.8408 298.674C41.2246 298.769 41.6625 298.818 42.1547 298.82L42.5063 298.821C42.9223 298.823 43.3142 298.77 43.6821 298.66C44.0446 298.545 44.3681 298.377 44.6527 298.157C44.9372 297.936 45.1705 297.669 45.3524 297.355C45.5286 297.04 45.6356 296.682 45.6734 296.279C45.7212 295.772 45.6612 295.319 45.4934 294.922C45.3257 294.524 45.068 294.179 44.7205 293.885L45.9061 292.779C46.1857 292.984 46.4478 293.251 46.6925 293.579C46.9313 293.907 47.1134 294.307 47.2389 294.781C47.3649 295.248 47.3988 295.791 47.3406 296.409Z" fill="#1A191D"/>
<path d="M44.3154 270.506L51.6823 272.274L51.0627 274.3L41.8156 272.08L42.3992 270.172L44.3154 270.506ZM46.6166 271.41L46.3972 272.097C45.7591 271.944 45.1934 271.724 44.7002 271.437C44.2069 271.151 43.8071 270.808 43.5008 270.41C43.1889 270.01 42.9932 269.56 42.9138 269.06C42.8304 268.553 42.8796 268.002 43.0613 267.408C43.1881 266.994 43.3665 266.631 43.5964 266.319C43.8223 266 44.1049 265.746 44.4441 265.557C44.7851 265.362 45.1812 265.247 45.6326 265.211C46.0856 265.169 46.6028 265.218 47.1839 265.358L53.3458 266.837L52.7262 268.862L46.7437 267.426C46.2936 267.318 45.9198 267.301 45.6223 267.373C45.3265 267.441 45.0867 267.585 44.9031 267.805C44.7154 268.019 44.5702 268.294 44.4673 268.63C44.3508 269.011 44.3254 269.354 44.3913 269.658C44.4589 269.957 44.5951 270.221 44.8001 270.451C45.0051 270.681 45.2636 270.875 45.5758 271.034C45.8879 271.193 46.2349 271.319 46.6166 271.41ZM47.7949 265.64L47.718 266.641C47.1596 266.507 46.6557 266.304 46.2063 266.034C45.7529 265.757 45.3837 265.425 45.0985 265.037C44.8093 264.643 44.6241 264.199 44.543 263.704C44.462 263.21 44.5088 262.677 44.6837 262.105C44.8259 261.64 45.0183 261.241 45.2607 260.908C45.4992 260.569 45.7946 260.303 46.1469 260.111C46.4993 259.919 46.9154 259.808 47.3952 259.779C47.8694 259.748 48.4141 259.807 49.0294 259.954L55.0119 261.39L54.3897 263.424L48.3987 261.986C47.9315 261.874 47.5491 261.855 47.2516 261.928C46.9558 261.995 46.7226 262.137 46.552 262.355C46.3758 262.571 46.2362 262.848 46.1334 263.184C46.0374 263.498 46.0124 263.789 46.0583 264.059C46.1003 264.322 46.2018 264.559 46.3629 264.773C46.5183 264.984 46.7171 265.164 46.9591 265.313C47.2029 265.455 47.4815 265.564 47.7949 265.64Z" fill="#1A191D"/>
<path d="M58.9185 247.229L54.7202 245.513C54.4056 245.385 54.109 245.33 53.8305 245.349C53.552 245.368 53.2984 245.467 53.0699 245.646C52.8437 245.819 52.6534 246.077 52.4989 246.418C52.3565 246.733 52.2876 247.028 52.2923 247.302C52.297 247.575 52.3626 247.814 52.489 248.018C52.6155 248.221 52.7954 248.37 53.0286 248.466L52.1596 250.388C51.8124 250.246 51.5135 250.026 51.2629 249.727C51.0123 249.429 50.8308 249.07 50.7182 248.651C50.6057 248.232 50.5752 247.773 50.6267 247.276C50.6782 246.778 50.8271 246.257 51.0733 245.712C51.3678 245.061 51.7398 244.53 52.1891 244.119C52.6408 243.703 53.1569 243.442 53.7375 243.338C54.3151 243.226 54.9401 243.307 55.6127 243.582L59.5263 245.181C59.9277 245.345 60.3005 245.466 60.6446 245.543C60.9858 245.613 61.2971 245.642 61.5786 245.63L61.7088 245.684L60.8144 247.662C60.5618 247.666 60.2608 247.628 59.9112 247.549C59.5586 247.462 59.2277 247.355 58.9185 247.229ZM55.4571 245.482L56.6767 245.962L56.0502 247.347C55.8885 247.705 55.7813 248.034 55.7287 248.335C55.6707 248.634 55.6657 248.901 55.7138 249.136C55.7619 249.37 55.8577 249.571 56.0011 249.737C56.1444 249.903 56.3328 250.034 56.566 250.129C56.7992 250.224 57.0376 250.259 57.2812 250.232C57.5193 250.202 57.7385 250.108 57.9387 249.95C58.1413 249.786 58.309 249.557 58.4418 249.264C58.6204 248.868 58.6948 248.491 58.6648 248.131C58.6319 247.763 58.5347 247.445 58.3733 247.177C58.2064 246.906 58.0169 246.721 57.8048 246.622L58.9578 246.353C59.1512 246.508 59.3404 246.715 59.5254 246.974C59.7103 247.233 59.8626 247.535 59.9824 247.881C60.0992 248.22 60.1523 248.593 60.1419 249C60.1338 249.401 60.0284 249.826 59.8256 250.275C59.5698 250.841 59.2277 251.299 58.7995 251.649C58.3659 251.997 57.8971 252.216 57.3931 252.308C56.8837 252.397 56.3795 252.339 55.8805 252.136C55.414 251.945 55.0404 251.691 54.7596 251.374C54.4759 251.049 54.288 250.669 54.196 250.233C54.1064 249.792 54.1103 249.3 54.2076 248.758C54.2995 248.213 54.4879 247.626 54.7727 246.996L55.4571 245.482Z" fill="#1A191D"/>
<path d="M54.9182 229.703L66.6599 236.365L65.5843 238.2L53.8426 231.538L54.9182 229.703ZM61.3754 226.577L63.2724 232.413L64.1438 235.514L62.3044 235.107L61.3288 232.583L60.0821 228.784L61.3754 226.577ZM68.5844 233.082L63.141 233.54L62.5247 231.655L69.8244 230.967L68.5844 233.082Z" fill="#1A191D"/>
<path d="M76.7872 221.086C76.3699 221.652 75.9013 222.095 75.3813 222.415C74.8602 222.727 74.3151 222.918 73.7462 222.988C73.1807 223.054 72.6106 223.003 72.0358 222.835C71.4611 222.667 70.9138 222.387 70.394 221.996L70.113 221.785C69.5183 221.337 69.0441 220.845 68.6904 220.308C68.3367 219.771 68.1037 219.218 67.9914 218.65C67.8744 218.078 67.881 217.511 68.0114 216.949C68.1417 216.387 68.3895 215.859 68.7546 215.364C69.158 214.817 69.6023 214.407 70.0875 214.134C70.5726 213.861 71.0806 213.715 71.6113 213.696C72.1408 213.669 72.6813 213.761 73.233 213.97C73.788 214.175 74.3395 214.483 74.8874 214.895L75.6109 215.44L71.2501 221.353L70.0349 220.439L73.1543 216.209L73.0208 216.109C72.7094 215.889 72.3786 215.736 72.0282 215.648C71.6813 215.556 71.3424 215.561 71.0116 215.665C70.6808 215.768 70.3763 216.008 70.0981 216.385C69.8894 216.668 69.7642 216.966 69.7226 217.279C69.6797 217.584 69.7167 217.894 69.8337 218.21C69.9507 218.525 70.1388 218.842 70.3981 219.162C70.6562 219.473 70.982 219.777 71.3753 220.073L71.6563 220.284C71.9888 220.534 72.3309 220.722 72.6826 220.847C73.0332 220.964 73.3799 221.012 73.7227 220.991C74.0656 220.971 74.3918 220.879 74.7014 220.716C75.0062 220.549 75.2786 220.303 75.5186 219.978C75.8211 219.567 76.0087 219.14 76.0813 218.696C76.1538 218.252 76.1272 217.8 76.0014 217.339L77.5278 217.09C77.6449 217.435 77.7162 217.822 77.7415 218.252C77.7622 218.678 77.6996 219.133 77.5537 219.617C77.4113 220.096 77.1558 220.586 76.7872 221.086Z" fill="#1A191D"/>
<path d="M92.7732 200.764L89.075 192.591L90.7141 191.024L95.1569 201.923C95.2474 202.16 95.3322 202.431 95.4115 202.736C95.4907 203.041 95.5286 203.365 95.5251 203.708C95.5297 204.052 95.4613 204.397 95.3199 204.742C95.1825 205.092 94.9422 205.431 94.5991 205.759C94.4635 205.889 94.3207 206.001 94.1705 206.096C94.0285 206.191 93.8908 206.279 93.7576 206.357L92.6888 205.144C92.735 205.108 92.7897 205.064 92.8529 205.012C92.9202 204.955 92.973 204.909 93.0111 204.872C93.2652 204.63 93.4481 204.394 93.5598 204.166C93.6754 203.942 93.7245 203.709 93.7072 203.466C93.6941 203.22 93.6218 202.941 93.4902 202.629L92.7732 200.764ZM86.1525 195.384L92.4622 199.191L94.2019 200.613L93.3892 201.912L84.5006 196.963L86.1525 195.384Z" fill="#1A191D"/>
<path d="M99.6434 189.533L99.5308 189.365C99.1492 188.796 98.8742 188.207 98.7059 187.599C98.5343 186.986 98.4764 186.385 98.5321 185.796C98.5893 185.198 98.7669 184.634 99.065 184.102C99.3645 183.561 99.7881 183.08 100.336 182.659C100.889 182.233 101.449 181.957 102.018 181.829C102.588 181.692 103.147 181.69 103.693 181.823C104.236 181.951 104.752 182.2 105.239 182.57C105.723 182.935 106.156 183.403 106.537 183.972L106.65 184.14C107.032 184.71 107.307 185.299 107.475 185.907C107.643 186.515 107.699 187.118 107.642 187.715C107.581 188.308 107.404 188.872 107.109 189.409C106.811 189.941 106.388 190.418 105.84 190.84C105.287 191.265 104.726 191.546 104.156 191.682C103.587 191.81 103.031 191.81 102.488 191.682C101.941 191.549 101.426 191.3 100.942 190.935C100.458 190.57 100.025 190.103 99.6434 189.533ZM101.209 188.073L101.322 188.241C101.56 188.597 101.82 188.906 102.102 189.168C102.383 189.431 102.678 189.625 102.987 189.749C103.295 189.873 103.611 189.914 103.935 189.871C104.258 189.829 104.58 189.684 104.9 189.438C105.212 189.198 105.435 188.923 105.571 188.612C105.712 188.297 105.777 187.963 105.766 187.61C105.754 187.257 105.678 186.895 105.535 186.525C105.398 186.152 105.21 185.787 104.971 185.432L104.859 185.264C104.624 184.914 104.365 184.611 104.082 184.357C103.8 184.094 103.501 183.9 103.185 183.775C102.873 183.646 102.556 183.602 102.232 183.645C101.91 183.679 101.591 183.817 101.275 184.06C100.96 184.303 100.733 184.585 100.596 184.905C100.459 185.216 100.399 185.551 100.413 185.908C100.428 186.266 100.506 186.63 100.648 187C100.788 187.365 100.975 187.723 101.209 188.073Z" fill="#1A191D"/>
<path d="M120.282 177.889L117.068 171.369L118.892 170.275L123.097 178.805L121.378 179.836L120.282 177.889ZM119.664 175.962L120.267 175.58C120.549 176.152 120.749 176.717 120.867 177.273C120.982 177.823 121.002 178.353 120.927 178.861C120.849 179.363 120.663 179.832 120.37 180.267C120.074 180.697 119.652 181.076 119.104 181.404C118.707 181.642 118.313 181.8 117.922 181.879C117.531 181.957 117.153 181.942 116.787 181.834C116.426 181.724 116.081 181.505 115.751 181.179C115.421 180.853 115.117 180.408 114.84 179.846L112.124 174.335L113.941 173.246L116.664 178.772C116.817 179.082 116.981 179.321 117.155 179.489C117.326 179.652 117.503 179.76 117.686 179.814C117.869 179.868 118.053 179.873 118.24 179.829C118.427 179.785 118.61 179.709 118.791 179.6C119.309 179.29 119.664 178.941 119.857 178.552C120.052 178.156 120.123 177.739 120.07 177.301C120.022 176.86 119.887 176.413 119.664 175.962Z" fill="#1A191D"/>
<path d="M130.54 166.162L133.139 173.41L131.22 174.307L128.01 165.355L129.841 164.499L130.54 166.162ZM132.544 163.168L133.192 165.029C133.068 165.061 132.934 165.104 132.792 165.158C132.656 165.209 132.521 165.265 132.388 165.327C132.059 165.481 131.788 165.666 131.574 165.882C131.358 166.092 131.198 166.328 131.093 166.59C130.992 166.843 130.942 167.118 130.942 167.414C130.943 167.709 130.992 168.018 131.089 168.34L130.663 168.578C130.461 168.015 130.327 167.469 130.261 166.94C130.195 166.41 130.203 165.914 130.285 165.451C130.372 164.985 130.541 164.574 130.792 164.219C131.048 163.861 131.39 163.582 131.82 163.381C131.937 163.326 132.066 163.279 132.206 163.239C132.352 163.196 132.465 163.173 132.544 163.168Z" fill="#1A191D"/>
<path d="M158.392 160.613L158.312 156.079C158.306 155.739 158.24 155.453 158.113 155.222C157.986 154.99 157.797 154.821 157.544 154.715C157.297 154.609 156.988 154.577 156.615 154.62C156.272 154.66 155.976 154.753 155.728 154.899C155.479 155.045 155.287 155.226 155.151 155.442C155.015 155.657 154.949 155.891 154.954 156.142L152.858 156.385C152.852 156.01 152.935 155.637 153.11 155.264C153.284 154.892 153.54 154.548 153.879 154.233C154.217 153.918 154.624 153.653 155.098 153.44C155.573 153.226 156.107 153.085 156.7 153.017C157.41 152.934 158.041 152.981 158.593 153.158C159.15 153.334 159.59 153.647 159.913 154.097C160.241 154.54 160.412 155.125 160.425 155.852L160.5 160.079C160.508 160.512 160.544 160.898 160.608 161.237C160.678 161.57 160.773 161.855 160.894 162.093L160.897 162.234L158.74 162.484C158.637 162.267 158.554 161.986 158.489 161.641C158.43 161.29 158.398 160.947 158.392 160.613ZM158.629 156.703L158.67 158.01L157.159 158.185C156.769 158.23 156.427 158.308 156.131 158.419C155.836 158.523 155.59 158.658 155.395 158.821C155.199 158.985 155.054 159.172 154.958 159.382C154.863 159.593 154.818 159.824 154.822 160.076C154.827 160.328 154.889 160.553 155.009 160.75C155.129 160.942 155.301 161.083 155.524 161.175C155.753 161.266 156.028 161.293 156.348 161.256C156.778 161.206 157.152 161.074 157.469 160.861C157.792 160.642 158.044 160.393 158.226 160.113C158.407 159.828 158.502 159.568 158.509 159.332L159.207 160.193C159.142 160.441 159.027 160.713 158.863 161.008C158.699 161.303 158.482 161.592 158.213 161.876C157.95 162.153 157.631 162.392 157.255 162.594C156.885 162.796 156.456 162.925 155.967 162.982C155.35 163.053 154.798 162.994 154.31 162.804C153.823 162.608 153.439 162.315 153.158 161.925C152.876 161.529 152.731 161.061 152.722 160.522C152.713 160.018 152.798 159.562 152.977 159.154C153.162 158.739 153.436 158.379 153.798 158.073C154.166 157.766 154.616 157.514 155.149 157.317C155.682 157.115 156.292 156.974 156.979 156.894L158.629 156.703Z" fill="#1A191D"/>
<path d="M174.026 157.345L171.798 146.031L173.834 145.413L176.441 158.659L174.599 159.218L174.026 157.345ZM167.587 156.512L167.551 156.331C167.412 155.624 167.367 154.955 167.415 154.325C167.462 153.689 167.599 153.115 167.824 152.602C168.049 152.083 168.361 151.644 168.759 151.285C169.157 150.921 169.633 150.654 170.189 150.486C170.738 150.319 171.242 150.282 171.7 150.374C172.158 150.467 172.572 150.673 172.944 150.993C173.315 151.307 173.643 151.719 173.928 152.23C174.211 152.735 174.457 153.318 174.664 153.98L174.778 154.558C174.836 155.247 174.833 155.894 174.768 156.498C174.703 157.103 174.564 157.651 174.352 158.142C174.139 158.633 173.844 159.051 173.467 159.397C173.095 159.742 172.632 159.998 172.077 160.167C171.527 160.333 171.008 160.366 170.518 160.265C170.035 160.162 169.597 159.944 169.204 159.613C168.812 159.281 168.478 158.852 168.203 158.326C167.926 157.795 167.721 157.19 167.587 156.512ZM169.578 155.716L169.614 155.897C169.698 156.322 169.812 156.708 169.957 157.054C170.108 157.398 170.293 157.686 170.511 157.918C170.728 158.145 170.981 158.3 171.271 158.382C171.565 158.458 171.894 158.44 172.258 158.329C172.718 158.19 173.076 157.971 173.333 157.674C173.589 157.377 173.767 157.028 173.866 156.626C173.97 156.217 174.009 155.784 173.985 155.329L173.678 153.768C173.577 153.439 173.445 153.144 173.281 152.883C173.122 152.62 172.934 152.406 172.718 152.241C172.5 152.069 172.25 151.962 171.968 151.92C171.691 151.87 171.379 151.898 171.031 152.003C170.661 152.115 170.363 152.291 170.137 152.53C169.91 152.77 169.741 153.056 169.628 153.388C169.521 153.719 169.465 154.084 169.46 154.481C169.455 154.879 169.494 155.29 169.578 155.716Z" fill="#1A191D"/>
<path d="M187.427 152.556L186.67 144.22L188.636 143.24L189.13 153.575L187.903 154.187L187.427 152.556ZM182.988 146.055L187.967 152.326L188.666 153.806L187.439 154.418L181.013 147.038L182.988 146.055Z" fill="#1A191D"/>
<path d="M202.451 146.02C201.878 146.428 201.301 146.7 200.719 146.835C200.139 146.961 199.579 146.963 199.037 146.839C198.501 146.712 198 146.47 197.535 146.112C197.071 145.754 196.669 145.298 196.33 144.743L196.147 144.443C195.759 143.808 195.496 143.17 195.358 142.529C195.22 141.888 195.197 141.273 195.289 140.683C195.377 140.088 195.577 139.54 195.887 139.039C196.197 138.538 196.603 138.109 197.104 137.751C197.657 137.357 198.201 137.109 198.735 137.008C199.269 136.907 199.781 136.937 200.269 137.098C200.76 137.251 201.22 137.522 201.65 137.912C202.084 138.298 202.48 138.784 202.837 139.369L203.309 140.142L197.327 144.408L196.535 143.111L200.814 140.059L200.727 139.916C200.519 139.598 200.27 139.337 199.982 139.134C199.698 138.927 199.388 138.818 199.052 138.806C198.716 138.794 198.358 138.925 197.976 139.197C197.69 139.401 197.474 139.648 197.33 139.938C197.187 140.219 197.114 140.533 197.113 140.878C197.112 141.224 197.174 141.596 197.301 141.994C197.429 142.383 197.622 142.788 197.878 143.208L198.061 143.508C198.278 143.863 198.525 144.161 198.802 144.401C199.081 144.633 199.379 144.797 199.698 144.893C200.017 144.988 200.344 145.009 200.681 144.956C201.015 144.897 201.347 144.75 201.676 144.515C202.091 144.219 202.407 143.868 202.625 143.462C202.842 143.055 202.973 142.607 203.016 142.117L204.488 142.391C204.477 142.766 204.409 143.165 204.285 143.591C204.159 144.012 203.947 144.432 203.649 144.853C203.356 145.27 202.956 145.659 202.451 146.02Z" fill="#1A191D"/>
<path d="M208.752 130.879L213.811 136.683L212.28 138.147L206.031 130.977L207.492 129.581L208.752 130.879ZM209.625 127.457L210.905 128.953C210.797 129.025 210.684 129.109 210.566 129.205C210.452 129.297 210.343 129.394 210.237 129.495C209.974 129.747 209.778 130.007 209.648 130.277C209.515 130.542 209.444 130.813 209.435 131.088C209.427 131.355 209.475 131.624 209.581 131.896C209.686 132.168 209.842 132.436 210.048 132.7L209.722 133.061C209.329 132.61 209.008 132.152 208.758 131.687C208.507 131.222 208.34 130.762 208.255 130.309C208.175 129.851 208.193 129.417 208.308 129.007C208.429 128.592 208.66 128.221 209.003 127.893C209.096 127.804 209.204 127.718 209.325 127.634C209.45 127.547 209.55 127.487 209.625 127.457Z" fill="#1A191D"/>
<path d="M217.301 118.927L218.476 119.933L215.075 124.077L213.9 123.071L217.301 118.927ZM213.112 120.36L214.456 118.723L221.453 124.714C221.675 124.904 221.873 125.019 222.045 125.059C222.216 125.09 222.37 125.064 222.507 124.98C222.644 124.897 222.777 124.776 222.907 124.617C223 124.504 223.083 124.39 223.155 124.274C223.227 124.159 223.282 124.063 223.321 123.989L224.555 125.034C224.484 125.204 224.389 125.393 224.272 125.601C224.158 125.804 224.006 126.021 223.816 126.252C223.508 126.628 223.17 126.906 222.803 127.085C222.432 127.261 222.03 127.302 221.598 127.21C221.166 127.118 220.703 126.86 220.209 126.437L213.112 120.36Z" fill="#1A191D"/>
<path d="M222.86 103.409L223.765 101.495L234.291 106.052L236.068 107.041L235.248 108.773L222.86 103.409ZM234.363 99.3252L234.532 99.3986C235.178 99.678 235.738 100.007 236.213 100.385C236.686 100.755 237.054 101.17 237.316 101.628C237.581 102.081 237.725 102.565 237.748 103.078C237.767 103.585 237.648 104.111 237.39 104.656C237.137 105.191 236.814 105.613 236.422 105.922C236.03 106.231 235.582 106.439 235.078 106.546C234.576 106.648 234.025 106.668 233.426 106.606C232.827 106.544 232.197 106.412 231.535 106.208L230.994 105.974C230.393 105.631 229.872 105.265 229.434 104.878C228.99 104.487 228.642 104.079 228.391 103.651C228.137 103.215 228.001 102.757 227.982 102.277C227.965 101.791 228.083 101.284 228.333 100.754C228.594 100.203 228.93 99.765 229.343 99.4396C229.759 99.109 230.232 98.8895 230.763 98.781C231.288 98.6703 231.855 98.6636 232.463 98.761C233.074 98.8531 233.707 99.0412 234.363 99.3252ZM233.627 101.313L233.457 101.24C233.065 101.07 232.681 100.942 232.307 100.857C231.928 100.769 231.571 100.742 231.238 100.777C230.906 100.806 230.607 100.912 230.338 101.096C230.067 101.272 229.845 101.543 229.672 101.908C229.512 102.247 229.433 102.564 229.436 102.859C229.439 103.154 229.504 103.427 229.631 103.68C229.758 103.933 229.933 104.165 230.157 104.377C230.383 104.583 230.644 104.77 230.941 104.937L232.401 105.569C232.827 105.696 233.245 105.756 233.657 105.749C234.065 105.734 234.439 105.628 234.779 105.431C235.113 105.231 235.387 104.906 235.6 104.455C235.768 104.101 235.837 103.77 235.807 103.463C235.777 103.157 235.667 102.876 235.476 102.621C235.283 102.359 235.027 102.12 234.707 101.906C234.39 101.685 234.03 101.488 233.627 101.313Z" fill="#1A191D"/>
<path d="M243.49 88.1222C243.297 88.7983 243.011 89.3854 242.631 89.8834C242.248 90.3746 241.798 90.7677 241.282 91.0626C240.768 91.3519 240.207 91.5383 239.599 91.6219C238.992 91.7054 238.37 91.6782 237.734 91.5403L237.391 91.4658C236.664 91.308 236.035 91.0609 235.505 90.7245C234.974 90.3881 234.553 89.9886 234.241 89.526C233.924 89.0622 233.726 88.5526 233.647 87.997C233.569 87.4415 233.614 86.868 233.783 86.2764C233.97 85.6228 234.245 85.0752 234.608 84.6334C234.971 84.1917 235.402 83.8544 235.9 83.6215C236.394 83.3817 236.942 83.2431 237.542 83.2059C238.144 83.163 238.78 83.2142 239.45 83.3596L240.335 83.5515L238.317 90.6168L236.831 90.2944L238.275 85.2405L238.111 85.2051C237.736 85.1356 237.366 85.1331 237.001 85.1975C236.637 85.2563 236.317 85.3991 236.039 85.6261C235.762 85.8531 235.558 86.1919 235.43 86.6426C235.333 86.9807 235.322 87.2983 235.395 87.5954C235.464 87.8856 235.611 88.1479 235.836 88.3821C236.061 88.6164 236.354 88.8237 236.716 89.004C237.074 89.1774 237.494 89.3162 237.975 89.4206L238.318 89.4951C238.725 89.5834 239.118 89.6118 239.498 89.5806C239.874 89.5424 240.221 89.4443 240.54 89.2861C240.859 89.1279 241.136 88.9128 241.372 88.6409C241.602 88.3677 241.772 88.0367 241.883 87.648C242.023 87.1578 242.048 86.6994 241.957 86.2728C241.866 85.8462 241.677 85.4523 241.391 85.091L242.754 84.247C242.99 84.5075 243.197 84.8247 243.376 85.1987C243.55 85.5713 243.654 86.0038 243.69 86.4962C243.727 86.983 243.661 87.525 243.49 88.1222Z" fill="#1A191D"/>
<path d="M236.973 71.027L238.517 71.1101L237.778 76.4203L236.234 76.3372L236.973 71.027ZM234.121 74.68L234.413 72.582L243.611 73.0767C243.903 73.0924 244.134 73.0639 244.303 72.9912C244.468 72.9123 244.587 72.7988 244.66 72.6508C244.734 72.5027 244.785 72.3271 244.813 72.124C244.833 71.9789 244.844 71.8392 244.845 71.7047C244.846 71.5703 244.843 71.462 244.837 71.3798L246.453 71.458C246.482 71.6349 246.5 71.8405 246.509 72.0749C246.518 72.3034 246.502 72.5657 246.461 72.8617C246.394 73.3433 246.25 73.7653 246.029 74.1276C245.801 74.4896 245.477 74.7645 245.056 74.9524C244.635 75.1402 244.1 75.2167 243.45 75.1817L234.121 74.68Z" fill="#1A191D"/>
<path d="M237.463 60.1781L239.005 60.057L238.913 65.4175L237.371 65.5386L237.463 60.1781ZM235.075 64.1742L235.112 62.0564L244.295 61.3355C244.587 61.3126 244.812 61.2539 244.971 61.1595C245.125 61.0597 245.229 60.9316 245.284 60.7751C245.34 60.6187 245.369 60.438 245.373 60.2329C245.375 60.0864 245.369 59.9465 245.354 59.8132C245.338 59.6798 245.323 59.5728 245.307 59.4921L246.919 59.3568C246.968 59.5284 247.012 59.7298 247.048 59.9609C247.085 60.1862 247.101 60.4482 247.096 60.747C247.088 61.2333 246.996 61.6705 246.82 62.0588C246.638 62.4475 246.35 62.7626 245.955 63.0042C245.56 63.2459 245.038 63.3921 244.39 63.443L235.075 64.1742Z" fill="#1A191D"/>
<path d="M246.043 47.6226C246.133 48.3198 246.104 48.9763 245.955 49.5921C245.799 50.2033 245.545 50.754 245.191 51.2441C244.837 51.7283 244.399 52.1392 243.879 52.4767C243.359 52.8143 242.782 53.0572 242.148 53.2057L241.806 53.2859C241.082 53.4557 240.412 53.502 239.796 53.4247C239.18 53.3475 238.64 53.1659 238.173 52.88C237.701 52.5955 237.32 52.2178 237.029 51.7471C236.739 51.2763 236.554 50.7358 236.474 50.1258C236.387 49.4517 236.421 48.8359 236.578 48.2783C236.735 47.7206 236.994 47.2287 237.356 46.8026C237.711 46.372 238.155 46.0105 238.687 45.7181C239.219 45.4199 239.818 45.1926 240.486 45.0361L241.367 44.8295L242.315 52.1157L240.835 52.4627L240.157 47.2508L239.994 47.2889C239.625 47.3875 239.287 47.5446 238.979 47.7602C238.672 47.9701 238.436 48.2379 238.273 48.5636C238.109 48.8893 238.058 49.2845 238.118 49.7494C238.164 50.098 238.278 50.3915 238.462 50.6298C238.64 50.8636 238.877 51.0385 239.174 51.1545C239.472 51.2704 239.821 51.3323 240.221 51.3401C240.616 51.3435 241.052 51.289 241.532 51.1767L241.874 51.0965C242.279 51.0016 242.648 50.8581 242.982 50.6661C243.309 50.4697 243.587 50.231 243.815 49.95C244.043 49.6691 244.21 49.3543 244.318 49.0058C244.42 48.6586 244.444 48.2846 244.392 47.8836C244.326 47.3781 244.168 46.9512 243.917 46.6029C243.666 46.2546 243.339 45.978 242.936 45.7731L243.844 44.4195C244.162 44.5546 244.476 44.7535 244.786 45.016C245.091 45.2799 245.357 45.6278 245.583 46.0596C245.809 46.4857 245.962 47.0067 246.043 47.6226Z" fill="#1A191D"/>
<path d="M235.651 36.9907L242.792 34.1119L243.391 36.1437L234.571 39.6995L233.999 37.7604L235.651 36.9907ZM233.093 34.9001L234.924 34.1808C234.939 34.3132 234.962 34.4547 234.994 34.6052C235.025 34.7501 235.061 34.8928 235.102 35.0333C235.205 35.3818 235.344 35.6684 235.519 35.8931C235.69 36.1201 235.891 36.2873 236.123 36.3949C236.348 36.499 236.6 36.5484 236.878 36.5432C237.156 36.538 237.453 36.4814 237.768 36.3733L237.937 36.8239C237.382 37.0474 236.852 37.1982 236.346 37.2764C235.841 37.3546 235.375 37.3536 234.95 37.2733C234.524 37.1875 234.159 37.0137 233.857 36.7519C233.554 36.4845 233.335 36.1231 233.201 35.6679C233.164 35.5442 233.136 35.4077 233.116 35.2585C233.095 35.1036 233.087 34.9841 233.093 34.9001Z" fill="#1A191D"/>
</svg>
