<svg width="24" height="23" viewBox="0 0 24 23" fill="none" xmlns="http://www.w3.org/2000/svg">
<g id="Group">
<path id="Vector" fill-rule="evenodd" clip-rule="evenodd" d="M9.85369 3.54284C9.82389 2.91276 9.82985 2.29937 9.85966 1.72353C9.961 -0.00815869 11.5705 -0.00219239 11.6956 0.000192036C11.9579 0.00615309 13.1264 0.0800622 13.4065 1.43024C13.4244 1.51072 13.4662 2.0937 13.4781 2.31843C13.5019 2.7977 13.5138 3.26864 13.4482 3.74135C13.5079 4.54311 13.639 5.36813 13.8894 6.14426C14.253 7.28997 14.8431 8.34746 15.9102 8.91078C17.8177 9.92416 20.3273 9.88302 22.4256 10.1405C23.3019 10.2478 23.9695 10.9787 23.9993 11.8609C24.0232 12.7437 23.4033 13.5139 22.5329 13.6742C19.9101 14.1595 16.8937 16.5445 14.9742 18.4652C14.3841 19.0553 13.7224 20.4609 12.9833 21.361C12.3872 22.0823 11.7255 22.5658 11.0995 22.7577C10.8551 22.8322 9.502 23.1041 8.89397 21.7032C8.72706 21.3098 8.13692 19.2496 8.08327 19.0148C7.76137 17.6688 7.3024 16.4664 6.40227 15.3958C5.62137 14.4677 4.67353 13.657 3.53496 13.2075C3.07595 13.0263 2.59907 12.8886 2.12218 12.7467C1.95527 12.7264 1.48436 12.6668 1.31745 12.6102C0.97767 12.4969 0.727281 12.3193 0.548448 12.1423C0.208667 11.8073 0.0357748 11.4073 0.00596937 10.9519C-0.017875 10.6514 0.0238614 10.2949 0.23846 9.89972C0.39941 9.61895 0.763024 9.1963 1.41874 8.92209C2.10427 8.63537 3.57669 8.36294 3.83898 8.29201C5.66307 7.80082 7.45142 7.05392 8.85227 5.75918C9.54972 5.1118 9.71063 4.41375 9.85369 3.54284ZM11.0221 8.61214C11.7255 10.0702 12.7746 11.2976 14.2351 12.0708C14.8371 12.3921 15.4929 12.6359 16.1724 12.8254C14.7716 13.8006 13.4721 14.9094 12.4408 15.9371C12.107 16.2715 11.7434 16.8127 11.3559 17.4071C10.9029 15.8202 10.2352 14.395 9.13839 13.0907C8.48863 12.3217 7.75538 11.6189 6.93871 11.0329C8.41706 10.4475 9.81798 9.66427 11.0221 8.61214Z" fill="#35312B"/>
</g>
</svg>
