<svg width="30" height="29" viewBox="0 0 30 29" fill="none" xmlns="http://www.w3.org/2000/svg">
<g id="Group">
<path id="Vector" fill-rule="evenodd" clip-rule="evenodd" d="M12.3041 4.42387C12.2669 3.6371 12.2743 2.87117 12.3115 2.15213C12.4381 -0.0101876 14.4478 -0.00273758 14.6041 0.000239791C14.9316 0.00768323 16.3906 0.0999719 16.7405 1.78591C16.7628 1.8864 16.8149 2.61436 16.8298 2.89498C16.8595 3.49343 16.8744 4.08148 16.7925 4.67174C16.867 5.67288 17.0307 6.70306 17.3433 7.6722C17.7974 9.10283 18.5343 10.4233 19.8667 11.1267C22.2486 12.3921 25.3822 12.3407 28.0023 12.6623C29.0965 12.7962 29.9302 13.7088 29.9674 14.8104C29.9972 15.9128 29.2231 16.8745 28.1364 17.0747C24.8612 17.6806 21.0948 20.6588 18.698 23.057C17.9611 23.7939 17.1349 25.5491 16.2119 26.673C15.4676 27.5737 14.6413 28.1774 13.8597 28.4171C13.5546 28.5101 11.8649 28.8495 11.1057 27.1003C10.8973 26.6091 10.1604 24.0366 10.0934 23.7433C9.69145 22.0626 9.11834 20.5612 7.99437 19.2244C7.01928 18.0654 5.83572 17.0532 4.41402 16.4919C3.84087 16.2656 3.2454 16.0937 2.64992 15.9165C2.44151 15.8912 1.85349 15.8168 1.64507 15.7461C1.22079 15.6047 0.908139 15.3829 0.684835 15.1618C0.260557 14.7435 0.0446712 14.244 0.00745382 13.6753C-0.0223201 13.3002 0.0297951 12.8551 0.29776 12.3616C0.498734 12.011 0.952771 11.4832 1.77155 11.1408C2.62755 10.7828 4.46613 10.4426 4.79365 10.354C7.07135 9.7407 9.30441 8.80807 11.0536 7.19135C11.9245 6.383 12.1254 5.51136 12.3041 4.42387ZM13.7631 10.7538C14.6414 12.5745 15.9514 14.1071 17.775 15.0725C18.5268 15.4737 19.3456 15.7781 20.1941 16.0148C18.4449 17.2326 16.8222 18.617 15.5345 19.9003C15.1177 20.3178 14.6637 20.9937 14.1799 21.7358C13.6141 19.7544 12.7805 17.9747 11.4109 16.346C10.5996 15.3858 9.68397 14.5082 8.66422 13.7766C10.5102 13.0456 12.2595 12.0676 13.7631 10.7538Z" fill="#35312B"/>
</g>
</svg>
